# xmcd
#
# Track frame offsets:
#	150
#	20418
#	40339
#	63145
#	81670
#	105918
#	124921
#	147895
#	165730
#	182852
#	207782
#	225117
#	241344
#	259302
#	279408
#	298031
#	313111
#	331218
#
# Disc length: 4736 seconds
#
# Revision: 1
# Processed by: cddbd v1.5PL3 Copyright (c) Steve Scherf et al.
# Submitted via: audiograbber 1.82.02
#
DISCID=fe127e12
DTITLE=John Mayer - Havier Things
DYEAR=2003
DGENRE=Blues
TTITLE0=Clarity
TTITLE1=Bigger Than My Body
TTITLE2=Something´s Missing
TTITLE3=New Deep
TTITLE4=Come Back To Bed
TTITLE5=Home Life
TTITLE6=Split Screen Sadness
TTITLE7=Daughters
TTITLE8=Only Heart
TTITLE9=Wheel
TTITLE10=No Such Thing
TTITLE11=Not Myself
TTITLE12=City Love
TTITLE13=Why Georgia
TTITLE14=Neon
TTITLE15=Love Song For No One
TTITLE16=Back To You
TTITLE17=St. Patrick´s Day
EXTD=
EXTT0=
EXTT1=
EXTT2=
EXTT3=
EXTT4=
EXTT5=
EXTT6=
EXTT7=
EXTT8=
EXTT9=
EXTT10=
EXTT11=
EXTT12=
EXTT13=
EXTT14=
EXTT15=
EXTT16=
EXTT17=
PLAYORDER=
